<svg width="24" height="24" viewBox="0 0 24 24" fill="none" xmlns="http://www.w3.org/2000/svg">
<circle cx="12" cy="12" r="12" fill="url(#paint0_linear_1536_2214)"/>
<circle cx="12" cy="12" r="11.5" stroke="white" stroke-opacity="0.21"/>
<path d="M9.34721 6.58222C9.56582 6.02793 10.3503 6.02793 10.5689 6.58223L11.2463 8.29994C11.3131 8.46917 11.447 8.60313 11.6163 8.66987L13.334 9.34733C13.8883 9.56594 13.8883 10.3504 13.334 10.569L11.6163 11.2465C11.447 11.3132 11.3131 11.4472 11.2463 11.6164L10.5689 13.3341C10.3503 13.8884 9.56582 13.8884 9.3472 13.3341L8.66975 11.6164C8.603 11.4472 8.46905 11.3132 8.29982 11.2465L6.5821 10.569C6.02781 10.3504 6.02781 9.56594 6.5821 9.34733L8.29982 8.66987C8.46905 8.60313 8.603 8.46917 8.66975 8.29994L9.34721 6.58222Z" fill="white"/>
<path d="M14.8724 12.812C14.9926 12.5073 15.4237 12.5073 15.5438 12.812L16.0692 14.1441C16.1059 14.2371 16.1795 14.3107 16.2725 14.3474L17.6047 14.8728C17.9093 14.9929 17.9093 15.424 17.6047 15.5442L16.2725 16.0696C16.1795 16.1063 16.1059 16.1799 16.0692 16.2729L15.5438 17.605C15.4237 17.9096 14.9926 17.9096 14.8724 17.605L14.347 16.2729C14.3104 16.1799 14.2367 16.1063 14.1437 16.0696L12.8116 15.5442C12.507 15.424 12.507 14.9929 12.8116 14.8728L14.1437 14.3474C14.2367 14.3107 14.3104 14.2371 14.347 14.1441L14.8724 12.812Z" fill="white"/>
<defs>
<linearGradient id="paint0_linear_1536_2214" x1="12" y1="0" x2="12" y2="24" gradientUnits="userSpaceOnUse">
<stop stop-color="#B78EF5"/>
<stop offset="1" stop-color="#6F1CEB"/>
</linearGradient>
</defs>
</svg>
